<svg width="228" height="63" viewBox="0 0 228 63" fill="none" xmlns="http://www.w3.org/2000/svg">
<rect width="228" height="63" fill="#391111"/>
<path d="M205.25 37.6214H204.969C204.207 40.2495 202.518 41.8629 200.059 41.8877H196.556V34.8448H199.903C201.247 34.8841 202.087 35.874 202.087 37.1905V37.3985H202.387V31.1131H202.087V31.3058C202.087 32.6372 201.233 33.6271 199.864 33.6519H196.556V26.4556H200.748C202.431 26.4804 203.392 27.5542 203.392 29.2669V29.539H203.697V24.8025C203.237 24.9906 201.766 25.2528 200.67 25.2577H190.427V25.555H190.777C191.641 25.555 192.339 26.2183 192.354 27.1089V41.2295C192.334 42.1102 191.636 42.7784 190.777 42.7784H190.427V43.0753H204.052H204.12L205.25 37.6214ZM181.374 30.7418C180.282 30.0537 179.404 29.4848 179.486 28.3808C179.559 27.03 180.806 26.0698 182.674 26.0698C184.988 26.0698 186.294 27.2474 186.294 29.049H186.541L186.949 25.154H185.367C184.159 25.0006 182.557 24.8868 181.582 24.8868C178.618 24.8868 176.58 26.5499 176.332 29.3806C176.114 31.415 177.046 33.0383 178.909 34.2407L183.052 36.9135C184.542 37.8786 185.226 38.5616 185.226 39.5863C185.226 41.0413 184.129 42.2636 181.859 42.2834C178.749 42.2933 176.881 40.0465 177.046 37.3588H176.818C176.119 38.4822 175.716 40.7494 176.167 41.8828C177.002 42.8032 179.025 43.4664 181.534 43.4664C185.58 43.4664 188.196 41.442 188.375 38.0865C188.506 35.9683 187.463 34.5574 185.978 33.6271L181.374 30.7418ZM168.696 25.2627V25.56H169.094C169.816 25.56 170.394 26.0599 170.423 26.8021V36.7948C170.398 40.2346 168.599 42.2834 165.556 42.2834C162.611 42.2834 160.864 40.1106 160.864 36.4682V26.8071C160.869 26.0649 161.451 25.56 162.175 25.56H162.592V25.2627H154.94V25.56H155.338C156.061 25.56 156.663 26.0649 156.667 26.8071V36.6563C156.667 40.9028 159.419 43.4664 165.013 43.4664C169.676 43.4664 172.344 40.878 172.344 36.6017V26.7872C172.359 26.0549 172.955 25.56 173.674 25.56H174.071V25.2627H168.696ZM142.946 42.2934C139.419 42.2934 137.114 39.1901 137.114 34.1816C137.114 29.1532 139.419 26.05 142.946 26.05C146.493 26.05 148.778 29.1532 148.778 34.1816C148.778 39.1901 146.493 42.2934 142.946 42.2934ZM142.946 24.8868C136.789 24.8868 132.655 28.4354 132.655 34.1816C132.655 39.908 136.789 43.4664 142.946 43.4664C149.127 43.4664 153.257 39.908 153.257 34.1816C153.257 28.4354 149.127 24.8868 142.946 24.8868ZM130.938 43.0802L130.933 42.7833H130.564C129.545 42.7833 128.72 41.9518 128.701 40.9173V24.456C128.72 23.4219 129.545 22.5854 130.564 22.5854H130.933L130.938 22.2935H122.097L122.102 22.5854H122.466C123.475 22.5854 124.295 23.4368 124.334 24.456V32.108H114.892V24.456C114.921 23.4318 115.746 22.5903 116.76 22.5903H117.124L117.129 22.2935H108.289L108.294 22.5903H108.662C109.676 22.5903 110.501 23.4268 110.526 24.456V40.9173C110.506 41.9518 109.681 42.7833 108.662 42.7833H108.294L108.289 43.0802H117.129L117.124 42.7833H116.76C115.741 42.7833 114.911 41.9518 114.892 40.9173V33.36H124.334V40.9371C124.3 41.9617 123.48 42.7833 122.466 42.7833H122.102L122.097 43.0802H130.938Z" fill="#FEFEFE"/>
<path fill-rule="evenodd" clip-rule="evenodd" d="M100.846 38.9293C102.179 40.1163 104.129 41.8448 105.723 42.3312L106.024 42.4228L106.073 43.4943L105.647 43.53C102.81 43.7659 100.148 43.9211 97.5667 42.4963C95.8373 43.4934 93.8133 43.8282 91.8459 43.8282C87.4074 43.8282 81.258 42.268 81.258 36.6612C81.258 33.9054 82.9702 32.0109 85.3237 31.0621C84.6584 29.8624 84.2564 28.5801 84.2564 27.1734C84.2564 23.0148 88.2442 21.4154 91.7544 21.4213C93.7368 21.4244 96.6432 21.9825 97.8626 23.7182L97.9816 23.8874L96.8108 28.6983H95.7541L95.7511 28.2503C95.7356 26.1122 95.0327 23.5761 92.5156 23.5761C90.7799 23.5761 89.6437 24.8611 89.6437 26.604C89.6437 29.2095 92.6713 31.6833 94.4175 33.2381C95.721 34.3985 97.016 35.5784 98.3399 36.7167C98.6026 35.4191 98.5535 33.9604 98.0019 32.7824C97.7211 32.1832 97.3172 31.6788 96.6153 31.6879H95.7413V30.4886H103.433V31.6879H102.569C101.92 31.6806 101.98 32.2726 101.982 32.7883C102.037 34.8669 101.756 37.047 100.846 38.9293ZM87.157 33.572C86.8111 34.3426 86.6988 35.1777 86.7417 36.0445C86.9164 39.5975 89.5933 41.6738 92.9424 41.6738C93.8544 41.6738 94.7183 41.4622 95.4945 41.0138C93.7903 39.6512 92.121 38.211 90.4845 36.77C89.342 35.7643 88.1783 34.7175 87.157 33.572Z" fill="#FEFEFE"/>
<path d="M86.3 36.0669C86.2226 34.5671 86.6105 33.5281 87.0718 32.7904C88.0905 34.0131 89.3714 35.2006 90.7735 36.4283C91.8558 37.3884 94.3009 39.5067 96.2563 41.0461C95.3686 41.7143 94.2624 42.1249 92.9426 42.1249C89.6093 42.1249 86.4942 40.086 86.3 36.0669ZM105.597 42.7633C104.087 42.3031 102.428 40.9319 100.293 39.0365C101.264 37.2151 101.599 35.0129 101.54 32.8003C101.535 31.8551 101.681 31.2266 102.574 31.2365H102.991V30.9397H96.1838V31.2365H96.6155C97.3674 31.2266 97.9641 31.657 98.4011 32.5878C99.0464 33.9684 99.1043 35.8196 98.5948 37.5219C97.2657 36.3985 95.3589 34.6763 94.1266 33.5777C90.9336 30.7366 89.2015 28.9102 89.2015 26.6038C89.2015 24.5798 90.5652 23.1248 92.5157 23.1248C95.1501 23.1248 96.1741 25.5747 96.1935 28.247H96.4651L97.5032 23.9807C96.5089 22.5653 94.0196 21.8822 91.7536 21.8723C88.1245 21.8723 84.6988 23.5254 84.6988 27.1732C84.6988 28.663 85.1792 30.0138 85.9798 31.3006C84.015 31.9539 81.7004 33.543 81.7004 36.6611C81.7004 41.823 87.3823 43.3769 91.8461 43.3769C94.2673 43.3769 96.14 42.8576 97.5616 41.9764C100.342 43.6147 103.471 43.2582 105.611 43.08L105.597 42.7633Z" fill="#FECC00"/>
<path d="M80.3597 24.7775C79.9864 24.9656 78.3901 25.2332 77.298 25.2332H66.5562C65.469 25.2332 63.9797 24.9656 63.4994 24.7775V29.4896H63.7953V29.2121C63.7953 27.5198 64.7608 26.4455 66.4589 26.4207H69.8261V41.2095C69.797 42.1051 69.0937 42.7832 68.2153 42.7832H67.9096V43.0801H75.9543V42.7832H75.6438C74.7751 42.7832 74.0573 42.115 74.0378 41.2343V26.4207H77.4002C79.1031 26.4455 80.0784 27.5198 80.0638 29.2121V29.4896H80.3646L80.3597 24.7775ZM45.8527 25.2625V25.5599H46.2215C47.0562 25.5599 47.7351 26.2132 47.7497 27.1038V41.2343C47.7303 42.1199 47.0367 42.7832 46.2021 42.7832H45.8527V43.0801H53.8681V42.7832H53.5528C52.7765 42.7832 51.9711 42.1944 51.9711 41.2095V26.4902C52.3011 26.5001 52.8831 26.4654 53.635 26.5001C54.6444 26.5497 56.5998 26.9702 56.7259 29.9002C56.7502 30.484 56.6821 30.9099 56.629 31.1423C56.1438 33.6369 54.8094 34.0971 53.6063 34.112H52.8588V34.3646C53.3975 34.4088 54.1154 34.9385 54.6055 36.1811C54.8726 37.1804 55.9107 39.1751 56.556 40.2345C57.9387 42.4565 59.4284 43.0801 62.5918 43.0801H65.0324V42.7832C63.8293 42.7782 63.1743 42.3379 62.0389 40.7592C61.0149 39.3732 60.171 37.9032 59.9233 37.4529C59.3798 36.537 58.2687 35.285 57.1142 34.9236C59.9817 34.5031 61.1556 32.2166 61.1556 30.128C61.1556 26.4257 58.0263 25.2625 54.7996 25.2625H45.8527ZM29.8752 36.0029L32.859 28.7073L35.7026 36.0029H29.8752ZM34.1351 21.6991H33.8732C33.8051 22.5604 32.6507 25.1339 32.4419 25.5892L25.7122 41.1102C25.0912 42.2882 24.0867 42.7832 23.2618 42.7832H23V43.0801H29.2396V42.7881H28.9871C28.2351 42.7881 27.3961 42.11 27.8716 40.9225L29.3608 37.2499H36.1922L37.6284 40.9225C38.0703 42.11 37.2551 42.7832 36.5032 42.7832H36.2458V43.0801H45.5227V42.7832H45.2754C44.4214 42.7832 43.4217 42.2783 42.791 41.061L34.1351 21.6991Z" fill="#FEFEFE"/>
</svg>
