<svg width="117" height="50" viewBox="0 0 117 50" fill="none" xmlns="http://www.w3.org/2000/svg">
<path d="M63.3183 36.47H56.8448V27.7338H57.7238V35.6504H61.7563V27.7338H62.6353V35.6504H64.1319V37.7765H63.3183V36.47ZM65.4682 27.7338H70.4747V28.595H66.3412V31.3269H70.439V32.1821H66.3412V35.6088H70.439V36.47H65.4682V27.7338ZM71.5199 27.7338H72.5414L74.6319 31.1428L76.7402 27.7338H77.7498L75.1486 31.9683L77.9221 36.47H76.9006L74.6319 32.8057L72.3514 36.47H71.3299L74.1152 31.9683L71.5199 27.7338Z" fill="white"/>
<path d="M56.8341 23.8848V15.1486H61.2111V16.0098H57.6952V18.8011H58.105C59.1938 18.8011 59.9837 18.8981 60.4747 19.0921C60.9696 19.2821 61.3576 19.585 61.6387 20.0007C61.9238 20.4125 62.0663 20.8718 62.0663 21.3785C62.0663 22.0437 61.8169 22.6277 61.318 23.1305C60.8191 23.6334 60.1243 23.8848 59.2334 23.8848H56.8341ZM57.6952 19.68V23.0296H58.7702C59.4076 23.0296 59.8748 22.9682 60.1718 22.8455C60.4687 22.7188 60.7043 22.5267 60.8785 22.2694C61.0567 22.0081 61.1458 21.7171 61.1458 21.3964C61.1458 20.9925 61.021 20.65 60.7716 20.3689C60.5222 20.0878 60.2114 19.9037 59.8392 19.8166C59.467 19.7255 58.9147 19.68 58.1822 19.68H57.6952ZM70.6777 23.8848H69.7691V17.1916L64.0143 23.8848H63.8183V15.1486H64.6913V21.9606L70.4817 15.1486H70.6777V23.8848ZM72.9939 15.9979C73.6076 15.2852 74.3658 14.9289 75.2685 14.9289C75.9851 14.9289 76.577 15.1367 77.0442 15.5525C77.5114 15.9642 77.745 16.4987 77.745 17.156C77.745 18.0864 77.3075 18.7535 76.4325 19.1574C77.5847 19.5137 78.1607 20.2858 78.1607 21.4736C78.1607 22.2654 77.9034 22.9029 77.3887 23.3859C76.874 23.8689 76.1692 24.1104 75.2744 24.1104C74.6489 24.1104 74.1045 23.9818 73.6412 23.7244C73.182 23.4631 72.7484 23.0078 72.3406 22.3585L73.0176 21.9606C73.4215 22.5544 73.7996 22.9365 74.152 23.1068C74.5044 23.2731 74.8706 23.3562 75.2507 23.3562C75.805 23.3562 76.2761 23.1959 76.6641 22.8752C77.0522 22.5544 77.2462 22.0833 77.2462 21.4617C77.2462 21.1331 77.1788 20.848 77.0442 20.6065C76.9136 20.361 76.7275 20.163 76.486 20.0126C76.2445 19.8621 76.0148 19.7671 75.7971 19.7275C75.5793 19.6879 75.221 19.6681 74.7221 19.6681H74.5736V18.902H74.8647C76.1593 18.902 76.8067 18.3774 76.8067 17.3282C76.8067 16.8412 76.6582 16.4552 76.3613 16.1701C76.0683 15.8811 75.6961 15.7366 75.2447 15.7366C74.6588 15.7366 74.1084 16.0018 73.5937 16.5324L72.9939 15.9979ZM79.8712 15.1486H80.7501V18.8129H85.1924V15.1486H86.0714V23.8848H85.1924V19.6681H80.7501V23.8848H79.8712V15.1486ZM88.2035 15.1486H93.21V16.0098H89.0765V18.7417H93.1743V19.5969H89.0765V23.0236H93.1743V23.8848H88.2035V15.1486ZM102.855 16.7699L102.166 17.2985C101.786 16.8036 101.328 16.4294 100.794 16.1761C100.263 15.9187 99.6794 15.79 99.042 15.79C98.3451 15.79 97.6998 15.9583 97.1059 16.2948C96.512 16.6274 96.0507 17.0768 95.7221 17.643C95.3975 18.2052 95.2351 18.8387 95.2351 19.5434C95.2351 20.6085 95.5994 21.4973 96.3279 22.21C97.0604 22.9227 97.9829 23.279 99.0954 23.279C100.319 23.279 101.342 22.7999 102.166 21.8418L102.855 22.3644C102.419 22.9187 101.875 23.3483 101.222 23.6531C100.572 23.9541 99.8457 24.1045 99.042 24.1045C97.5137 24.1045 96.3081 23.5957 95.4252 22.5782C94.6848 21.719 94.3146 20.6817 94.3146 19.4662C94.3146 18.1874 94.762 17.1124 95.6568 16.2414C96.5555 15.3664 97.68 14.9289 99.0301 14.9289C99.8457 14.9289 100.582 15.0912 101.239 15.4159C101.897 15.7366 102.435 16.1879 102.855 16.7699Z" fill="white"/>
<circle cx="24.9467" cy="24.9467" r="24.9467" fill="white"/>
<path d="M29.0627 30.9976H22.1617V31.9603H29.0627V30.9976Z" fill="#292929"/>
<path d="M29.0723 17.7389V16.7095H22.6479H21.6852V17.7389V23.6962H19.4834V24.6589H21.6852V28.9292H22.6479V24.6589H26.9468V23.6962H22.6479V17.7389H29.0723Z" fill="#292929"/>
<path d="M6.06018 16.7097V30.6356V31.4172V31.5983H14.8214L15.7628 33.1839L16.9396 30.6356H7.02289V16.7097H6.06018Z" fill="#292929"/>
<path d="M15.704 16.7095H14.7626V28.9475H15.704V16.7095Z" fill="#292929"/>
<path d="M33.1996 31.6457L43.6178 16.9096L42.3691 16.9382L37.832 23.334L33.1996 16.7095H31.9509L37.222 24.1824L31.9509 31.6457H33.1996Z" fill="#292929"/>
<path d="M38.4039 26.0221L42.4359 31.6649L43.8466 31.6458L39.0807 25.2214L38.4039 26.0221Z" fill="#292929"/>
</svg>
